<?xml version="1.0" encoding="UTF-8" standalone="no"?>
<!-- Created with Inkscape (http://www.inkscape.org/) -->

<svg
   xmlns:dc="http://purl.org/dc/elements/1.1/"
   xmlns:cc="http://creativecommons.org/ns#"
   xmlns:rdf="http://www.w3.org/1999/02/22-rdf-syntax-ns#"
   xmlns:svg="http://www.w3.org/2000/svg"
   xmlns="http://www.w3.org/2000/svg"
   xmlns:sodipodi="http://sodipodi.sourceforge.net/DTD/sodipodi-0.dtd"
   xmlns:inkscape="http://www.inkscape.org/namespaces/inkscape"
   width="440"
   height="280"
   id="svg3049"
   version="1.1"
   inkscape:version="0.47pre4 r22446"
   sodipodi:docname="gfrd.svg">
  <defs
     id="defs3051">
    <inkscape:perspective
       sodipodi:type="inkscape:persp3d"
       inkscape:vp_x="0 : 526.18109 : 1"
       inkscape:vp_y="0 : 1000 : 0"
       inkscape:vp_z="744.09448 : 526.18109 : 1"
       inkscape:persp3d-origin="372.04724 : 350.78739 : 1"
       id="perspective3057" />
    <inkscape:perspective
       id="perspective3067"
       inkscape:persp3d-origin="0.5 : 0.33333333 : 1"
       inkscape:vp_z="1 : 0.5 : 1"
       inkscape:vp_y="0 : 1000 : 0"
       inkscape:vp_x="0 : 0.5 : 1"
       sodipodi:type="inkscape:persp3d" />
    <marker
       inkscape:stockid="TriangleOutL"
       orient="auto"
       refY="0"
       refX="0"
       id="TriangleOutL"
       style="overflow:visible">
      <path
         id="path3829"
         d="m 5.77,0 -8.65,5 0,-10 8.65,5 z"
         style="fill-rule:evenodd;stroke:#000000;stroke-width:1pt;marker-start:none"
         transform="scale(0.8,0.8)" />
    </marker>
    <marker
       inkscape:stockid="TriangleOutL"
       orient="auto"
       refY="0"
       refX="0"
       id="marker3073"
       style="overflow:visible">
      <path
         id="path3075"
         d="m 5.77,0 -8.65,5 0,-10 8.65,5 z"
         style="fill-rule:evenodd;stroke:#000000;stroke-width:1pt;marker-start:none"
         transform="scale(0.8,0.8)" />
    </marker>
    <inkscape:perspective
       id="perspective3157"
       inkscape:persp3d-origin="0.5 : 0.33333333 : 1"
       inkscape:vp_z="1 : 0.5 : 1"
       inkscape:vp_y="0 : 1000 : 0"
       inkscape:vp_x="0 : 0.5 : 1"
       sodipodi:type="inkscape:persp3d" />
    <inkscape:perspective
       id="perspective3188"
       inkscape:persp3d-origin="0.5 : 0.33333333 : 1"
       inkscape:vp_z="1 : 0.5 : 1"
       inkscape:vp_y="0 : 1000 : 0"
       inkscape:vp_x="0 : 0.5 : 1"
       sodipodi:type="inkscape:persp3d" />
    <inkscape:perspective
       id="perspective3188-3"
       inkscape:persp3d-origin="0.5 : 0.33333333 : 1"
       inkscape:vp_z="1 : 0.5 : 1"
       inkscape:vp_y="0 : 1000 : 0"
       inkscape:vp_x="0 : 0.5 : 1"
       sodipodi:type="inkscape:persp3d" />
    <inkscape:perspective
       id="perspective3188-37"
       inkscape:persp3d-origin="0.5 : 0.33333333 : 1"
       inkscape:vp_z="1 : 0.5 : 1"
       inkscape:vp_y="0 : 1000 : 0"
       inkscape:vp_x="0 : 0.5 : 1"
       sodipodi:type="inkscape:persp3d" />
    <inkscape:perspective
       id="perspective4728"
       inkscape:persp3d-origin="0.5 : 0.33333333 : 1"
       inkscape:vp_z="1 : 0.5 : 1"
       inkscape:vp_y="0 : 1000 : 0"
       inkscape:vp_x="0 : 0.5 : 1"
       sodipodi:type="inkscape:persp3d" />
    <inkscape:perspective
       id="perspective4753"
       inkscape:persp3d-origin="0.5 : 0.33333333 : 1"
       inkscape:vp_z="1 : 0.5 : 1"
       inkscape:vp_y="0 : 1000 : 0"
       inkscape:vp_x="0 : 0.5 : 1"
       sodipodi:type="inkscape:persp3d" />
    <inkscape:perspective
       id="perspective4781"
       inkscape:persp3d-origin="0.5 : 0.33333333 : 1"
       inkscape:vp_z="1 : 0.5 : 1"
       inkscape:vp_y="0 : 1000 : 0"
       inkscape:vp_x="0 : 0.5 : 1"
       sodipodi:type="inkscape:persp3d" />
    <inkscape:perspective
       id="perspective4806"
       inkscape:persp3d-origin="0.5 : 0.33333333 : 1"
       inkscape:vp_z="1 : 0.5 : 1"
       inkscape:vp_y="0 : 1000 : 0"
       inkscape:vp_x="0 : 0.5 : 1"
       sodipodi:type="inkscape:persp3d" />
    <inkscape:perspective
       id="perspective4833"
       inkscape:persp3d-origin="0.5 : 0.33333333 : 1"
       inkscape:vp_z="1 : 0.5 : 1"
       inkscape:vp_y="0 : 1000 : 0"
       inkscape:vp_x="0 : 0.5 : 1"
       sodipodi:type="inkscape:persp3d" />
    <inkscape:perspective
       id="perspective5950"
       inkscape:persp3d-origin="0.5 : 0.33333333 : 1"
       inkscape:vp_z="1 : 0.5 : 1"
       inkscape:vp_y="0 : 1000 : 0"
       inkscape:vp_x="0 : 0.5 : 1"
       sodipodi:type="inkscape:persp3d" />
  </defs>
  <sodipodi:namedview
     id="base"
     pagecolor="#ffffff"
     bordercolor="#666666"
     borderopacity="1.0"
     inkscape:pageopacity="0.0"
     inkscape:pageshadow="2"
     inkscape:zoom="1.979899"
     inkscape:cx="268.60512"
     inkscape:cy="141.00034"
     inkscape:document-units="px"
     inkscape:current-layer="layer1"
     showgrid="false"
     inkscape:window-width="1914"
     inkscape:window-height="1194"
     inkscape:window-x="0"
     inkscape:window-y="0"
     inkscape:window-maximized="0"
     showguides="true"
     inkscape:guide-bbox="true" />
  <metadata
     id="metadata3054">
    <rdf:RDF>
      <cc:Work
         rdf:about="">
        <dc:format>image/svg+xml</dc:format>
        <dc:type
           rdf:resource="http://purl.org/dc/dcmitype/StillImage" />
        <dc:title />
      </cc:Work>
    </rdf:RDF>
  </metadata>
  <g
     inkscape:label="Layer 1"
     inkscape:groupmode="layer"
     id="layer1"
     transform="translate(0,-772.36217)">
    <path
       sodipodi:type="arc"
       style="fill:#008000;fill-opacity:1;stroke:#000000;stroke-width:2.94117641;stroke-miterlimit:4;stroke-opacity:1;stroke-dasharray:none"
       id="path3662"
       sodipodi:cx="480"
       sodipodi:cy="452.36218"
       sodipodi:rx="40"
       sodipodi:ry="40"
       d="m 520,452.36218 c 0,22.09139 -17.90861,40 -40,40 -22.09139,0 -40,-17.90861 -40,-40 0,-22.09139 17.90861,-40 40,-40 22.09139,0 40,17.90861 40,40 z"
       transform="matrix(0.03382976,-0.24071126,0.24071126,0.03382977,184.52428,929.49023)" />
    <path
       sodipodi:type="arc"
       style="fill:#ffff00;fill-opacity:1;stroke:#000000;stroke-width:2.94117641;stroke-miterlimit:4;stroke-opacity:1;stroke-dasharray:none"
       id="path3664"
       sodipodi:cx="320"
       sodipodi:cy="612.36218"
       sodipodi:rx="40"
       sodipodi:ry="40"
       d="m 360,612.36218 c 0,22.09139 -17.90861,40 -40,40 -22.09139,0 -40,-17.90861 -40,-40 0,-22.09139 17.90861,-40 40,-40 22.09139,0 40,17.90861 40,40 z"
       transform="matrix(0.03382976,-0.24071126,0.24071126,0.03382977,121.70445,956.13134)" />
    <path
       sodipodi:type="arc"
       style="fill:none;stroke:#000000;stroke-width:3.46973799;stroke-miterlimit:4;stroke-opacity:1;stroke-dasharray:none"
       id="path5651"
       sodipodi:cx="340"
       sodipodi:cy="512.36218"
       sodipodi:rx="140"
       sodipodi:ry="140"
       d="m 480,512.36218 c 0,77.31987 -62.68014,140 -140,140 -77.31986,0 -140,-62.68013 -140,-140 0,-77.31986 62.68014,-140 140,-140 77.31986,0 140,62.68014 140,140 z"
       transform="matrix(0.2882062,0,0,0.2882062,124.57581,708.14766)" />
    <path
       sodipodi:type="arc"
       style="fill:none;stroke:#000000;stroke-width:6.42593652;stroke-linejoin:round;stroke-miterlimit:4;stroke-opacity:1;stroke-dasharray:none"
       id="path8655"
       sodipodi:cx="340"
       sodipodi:cy="512.36218"
       sodipodi:rx="199.18222"
       sodipodi:ry="199.18222"
       d="m 539.18222,512.36218 c 0,110.00531 -89.17692,199.18222 -199.18222,199.18222 -110.0053,0 -199.18222,-89.17691 -199.18222,-199.18222 0,-110.0053 89.17692,-199.18222 199.18222,-199.18222 110.0053,0 199.18222,89.17692 199.18222,199.18222 z"
       transform="matrix(0.15561934,0,0,0.15561934,226.62742,820.12331)" />
    <path
       sodipodi:type="arc"
       style="fill:#ff0000;fill-opacity:1;stroke:#000000;stroke-width:2.94117641;stroke-miterlimit:4;stroke-opacity:1;stroke-dasharray:none"
       id="path3662-8"
       sodipodi:cx="480"
       sodipodi:cy="452.36218"
       sodipodi:rx="40"
       sodipodi:ry="40"
       d="m 520,452.36218 c 0,22.09139 -17.90861,40 -40,40 -22.09139,0 -40,-17.90861 -40,-40 0,-22.09139 17.90861,-40 40,-40 22.09139,0 40,17.90861 40,40 z"
       transform="matrix(0.03382976,-0.24071126,0.24071126,0.03382977,13.384176,958.40632)" />
    <path
       sodipodi:type="arc"
       style="fill:none;stroke:#000000;stroke-width:3.71528908;stroke-linejoin:round;stroke-miterlimit:4;stroke-opacity:1;stroke-dasharray:none"
       id="path8655-0"
       sodipodi:cx="340"
       sodipodi:cy="512.36218"
       sodipodi:rx="199.18222"
       sodipodi:ry="199.18222"
       d="m 539.18222,512.36218 c 0,110.00531 -89.17692,199.18222 -199.18222,199.18222 -110.0053,0 -199.18222,-89.17691 -199.18222,-199.18222 0,-110.0053 89.17692,-199.18222 199.18222,-199.18222 110.0053,0 199.18222,89.17692 199.18222,199.18222 z"
       transform="matrix(0.26915806,0,0,0.26915806,38.222562,733.5842)" />
    <text
       xml:space="preserve"
       style="font-size:29.15267944px;font-style:normal;font-weight:normal;line-height:125%;fill:#000000;fill-opacity:1;stroke:none; font-family:Lucida Grande;-inkscape-font-specification:Lucida Grande"
       x="164.74637"
       y="792.58594"
       id="text2997-9"
       sodipodi:linespacing="125%"><tspan
         sodipodi:role="line"
         id="tspan2999-7"
         x="164.74637"
         y="792.58594"
         style="font-size:16px;font-style:italic;font-variant:normal;font-weight:normal;font-stretch:normal;text-align:start;line-height:125%;writing-mode:lr-tb;text-anchor:start;fill:#ff0000; font-family:Lucida Grande;-inkscape-font-specification:Lucida Grande Italic">Single</tspan></text>
    <path
       sodipodi:type="arc"
       style="fill:#0000ff;fill-opacity:1;stroke:#000000;stroke-width:2.94117641;stroke-miterlimit:4;stroke-opacity:1;stroke-dasharray:none"
       id="path3662-8-9"
       sodipodi:cx="480"
       sodipodi:cy="452.36218"
       sodipodi:rx="40"
       sodipodi:ry="40"
       d="m 520,452.36218 c 0,22.09139 -17.90861,40 -40,40 -22.09139,0 -40,-17.90861 -40,-40 0,-22.09139 17.90861,-40 40,-40 22.09139,0 40,17.90861 40,40 z"
       transform="matrix(0.03382976,-0.24071126,0.24071126,0.03382977,98.305285,955.93529)" />
    <path
       sodipodi:type="arc"
       style="fill:#008000;fill-opacity:1;stroke:#000000;stroke-width:2.94117641;stroke-miterlimit:4;stroke-opacity:1;stroke-dasharray:none"
       id="path3662-8-2"
       sodipodi:cx="480"
       sodipodi:cy="452.36218"
       sodipodi:rx="40"
       sodipodi:ry="40"
       d="m 520,452.36218 c 0,22.09139 -17.90861,40 -40,40 -22.09139,0 -40,-17.90861 -40,-40 0,-22.09139 17.90861,-40 40,-40 22.09139,0 40,17.90861 40,40 z"
       transform="matrix(0.03382976,-0.24071126,0.24071126,0.03382977,-3.3774797,986.28032)" />
    <path
       sodipodi:type="arc"
       style="fill:none;stroke:#000000;stroke-width:7.24861526;stroke-linejoin:round;stroke-miterlimit:4;stroke-opacity:1;stroke-dasharray:none"
       id="path8655-0-4"
       sodipodi:cx="340"
       sodipodi:cy="512.36218"
       sodipodi:rx="199.18222"
       sodipodi:ry="199.18222"
       d="m 539.18222,512.36218 c 0,110.00531 -89.17692,199.18222 -199.18222,199.18222 -110.0053,0 -199.18222,-89.17691 -199.18222,-199.18222 0,-110.0053 89.17692,-199.18222 199.18222,-199.18222 110.0053,0 199.18222,89.17692 199.18222,199.18222 z"
       transform="matrix(0.13795738,0,0,0.13795738,262.70626,758.4343)" />
    <path
       sodipodi:type="arc"
       style="fill:none;stroke:#000000;stroke-width:3.65297794;stroke-linejoin:round;stroke-miterlimit:4;stroke-opacity:1;stroke-dasharray:none"
       id="path8655-0-4-0"
       sodipodi:cx="340"
       sodipodi:cy="512.36218"
       sodipodi:rx="199.18222"
       sodipodi:ry="199.18222"
       d="m 539.18222,512.36218 a 199.18222,199.18222 0 1 1 -398.36444,0 199.18222,199.18222 0 1 1 398.36444,0 z"
       transform="matrix(0.27374925,0,0,0.27374925,288.76291,729.77087)" />
    <path
       sodipodi:type="arc"
       style="fill:#ffff00;fill-opacity:1;stroke:#000000;stroke-width:2.94117641;stroke-miterlimit:4;stroke-opacity:1;stroke-dasharray:none"
       id="path3662-8-21"
       sodipodi:cx="480"
       sodipodi:cy="452.36218"
       sodipodi:rx="40"
       sodipodi:ry="40"
       d="m 520,452.36218 c 0,22.09139 -17.90861,40 -40,40 -22.09139,0 -40,-17.90861 -40,-40 0,-22.09139 17.90861,-40 40,-40 22.09139,0 40,17.90861 40,40 z"
       transform="matrix(-0.00848327,0.24292879,0.24292879,0.00848325,111.29437,856.51148)" />
    <path
       sodipodi:type="arc"
       style="fill:none;stroke:#000000;stroke-width:3.71528912;stroke-linejoin:round;stroke-miterlimit:4;stroke-opacity:1;stroke-dasharray:none"
       id="path8655-0-7"
       sodipodi:cx="340"
       sodipodi:cy="512.36218"
       sodipodi:rx="199.18222"
       sodipodi:ry="199.18222"
       d="m 539.18222,512.36218 c 0,110.00531 -89.17692,199.18222 -199.18222,199.18222 -110.0053,0 -199.18222,-89.17691 -199.18222,-199.18222 0,-110.0053 89.17692,-199.18222 199.18222,-199.18222 110.0053,0 199.18222,89.17692 199.18222,199.18222 z"
       transform="matrix(0.26915806,0,0,0.26915806,116.57768,851.8263)" />
    <path
       sodipodi:type="arc"
       style="fill:#0000ff;fill-opacity:1;stroke:#000000;stroke-width:2.94117641;stroke-miterlimit:4;stroke-opacity:1;stroke-dasharray:none"
       id="path3662-8-2-5"
       sodipodi:cx="480"
       sodipodi:cy="452.36218"
       sodipodi:rx="40"
       sodipodi:ry="40"
       d="m 520,452.36218 c 0,22.09139 -17.90861,40 -40,40 -22.09139,0 -40,-17.90861 -40,-40 0,-22.09139 17.90861,-40 40,-40 22.09139,0 40,17.90861 40,40 z"
       transform="matrix(-0.00848327,0.24292879,0.24292879,0.00848325,93.026661,882.79157)" />
    <path
       sodipodi:type="arc"
       style="fill:#ff0000;fill-opacity:1;stroke:#000000;stroke-width:2.94117641;stroke-miterlimit:4;stroke-opacity:1;stroke-dasharray:none"
       id="path3664-1"
       sodipodi:cx="320"
       sodipodi:cy="612.36218"
       sodipodi:rx="40"
       sodipodi:ry="40"
       d="m 360,612.36218 c 0,22.09139 -17.90861,40 -40,40 -22.09139,0 -40,-17.90861 -40,-40 0,-22.09139 17.90861,-40 40,-40 22.09139,0 40,17.90861 40,40 z"
       transform="matrix(0.03382976,-0.24071126,0.24071126,0.03382977,135.11069,1050.553)" />
    <path
       sodipodi:type="arc"
       style="fill:none;stroke:#000000;stroke-width:6.4259367;stroke-linejoin:round;stroke-miterlimit:4;stroke-opacity:1;stroke-dasharray:none"
       id="path8655-7"
       sodipodi:cx="340"
       sodipodi:cy="512.36218"
       sodipodi:rx="199.18222"
       sodipodi:ry="199.18222"
       d="m 539.18222,512.36218 c 0,110.00531 -89.17692,199.18222 -199.18222,199.18222 -110.0053,0 -199.18222,-89.17691 -199.18222,-199.18222 0,-110.0053 89.17692,-199.18222 199.18222,-199.18222 110.0053,0 199.18222,89.17692 199.18222,199.18222 z"
       transform="matrix(0.15561934,0,0,0.15561934,240.03366,914.54494)" />
    <text
       xml:space="preserve"
       style="font-size:29.15267944px;font-style:normal;font-weight:normal;line-height:125%;fill:#000000;fill-opacity:1;stroke:none; font-family:Lucida Grande;-inkscape-font-specification:Lucida Grande"
       x="43.828651"
       y="799.3045"
       id="text2997-9-4"
       sodipodi:linespacing="125%"><tspan
         sodipodi:role="line"
         id="tspan2999-7-1"
         x="43.828651"
         y="799.3045"
         style="font-size:16px;font-style:italic;font-variant:normal;font-weight:normal;font-stretch:normal;text-align:start;line-height:125%;writing-mode:lr-tb;text-anchor:start;fill:#ff0000; font-family:Lucida Grande;-inkscape-font-specification:Lucida Grande Italic">Pair</tspan></text>
    <text
       xml:space="preserve"
       style="font-size:29.15267944px;font-style:normal;font-weight:normal;line-height:125%;fill:#000000;fill-opacity:1;stroke:none; font-family:Lucida Grande;-inkscape-font-specification:Lucida Grande"
       x="50.899727"
       y="960.42383"
       id="text2997-9-7"
       sodipodi:linespacing="125%"><tspan
         sodipodi:role="line"
         x="50.899727"
         y="960.42383"
         style="font-size:16px;font-style:italic;font-variant:normal;font-weight:normal;font-stretch:normal;text-align:center;line-height:125%;writing-mode:lr-tb;text-anchor:middle;fill:#ff0000; font-family:Lucida Grande;-inkscape-font-specification:Lucida Grande Italic"
         id="tspan4850">Protective</tspan><tspan
         sodipodi:role="line"
         x="50.899727"
         y="980.42383"
         style="font-size:16px;font-style:italic;font-variant:normal;font-weight:normal;font-stretch:normal;text-align:center;line-height:125%;writing-mode:lr-tb;text-anchor:middle;fill:#ff0000; font-family:Lucida Grande;-inkscape-font-specification:Lucida Grande Italic"
         id="tspan4862">domain</tspan></text>
    <path
       style="fill:none;stroke:#000000;stroke-width:2;stroke-linecap:butt;stroke-linejoin:miter;stroke-opacity:1;stroke-miterlimit:4;stroke-dasharray:none"
       d="M 69.700526,36.04816 88.893424,54.735982"
       id="path4854"
       transform="translate(0,772.36217)" />
    <path
       style="fill:none;stroke:#000000;stroke-width:2;stroke-linecap:butt;stroke-linejoin:miter;stroke-miterlimit:4;stroke-opacity:1;stroke-dasharray:none"
       d="m 185.86807,800.32911 12.12184,15.15228"
       id="path4856"
       sodipodi:nodetypes="cc" />
    <path
       style="fill:none;stroke:#000000;stroke-width:2;stroke-linecap:butt;stroke-linejoin:miter;stroke-miterlimit:4;stroke-opacity:1;stroke-dasharray:none"
       d="M 52.1549,942.62858 82.195388,913.09316"
       id="path4858" />
    <path
       sodipodi:type="arc"
       style="fill:#008000;fill-opacity:1;stroke:#000000;stroke-width:2.94117641;stroke-miterlimit:4;stroke-opacity:1;stroke-dasharray:none"
       id="path3662-4"
       sodipodi:cx="480"
       sodipodi:cy="452.36218"
       sodipodi:rx="40"
       sodipodi:ry="40"
       d="m 520,452.36218 a 40,40 0 1 1 -80,0 40,40 0 1 1 80,0 z"
       transform="matrix(0.03382976,-0.24071126,0.24071126,0.03382977,256.7107,970.26774)" />
  </g>
</svg>
